<svg width="1000" height="1000" viewBox="0 0 1000 1000" fill="none" xmlns="http://www.w3.org/2000/svg">
<rect width="1000" height="1000" fill="#001EB9"/>
<path d="M500.5 412.875C477.526 412.875 455.492 422.002 439.247 438.247C423.002 454.492 413.875 476.526 413.875 499.5C413.875 522.474 423.002 544.508 439.247 560.753C455.492 576.998 477.526 586.125 500.5 586.125C523.474 586.125 545.508 576.998 561.753 560.753C577.998 544.508 587.125 522.474 587.125 499.5C587.125 476.526 577.998 454.492 561.753 438.247C545.508 422.002 523.474 412.875 500.5 412.875ZM702.625 701.625H587.125V759.375H702.625C717.941 759.375 732.63 753.291 743.46 742.46C754.291 731.63 760.375 716.941 760.375 701.625V586.125H702.625V701.625ZM702.625 239.625H587.125V297.375H702.625V412.875H760.375V297.375C760.375 282.059 754.291 267.37 743.46 256.54C732.63 245.709 717.941 239.625 702.625 239.625ZM298.375 297.375H413.875V239.625H298.375C283.059 239.625 268.37 245.709 257.54 256.54C246.709 267.37 240.625 282.059 240.625 297.375V412.875H298.375V297.375ZM298.375 586.125H240.625V701.625C240.625 716.941 246.709 731.63 257.54 742.46C268.37 753.291 283.059 759.375 298.375 759.375H413.875V701.625H298.375V586.125Z" fill="white"/>
</svg>
